<svg width="178" height="76" fill="none" xmlns="http://www.w3.org/2000/svg"><path fill-rule="evenodd" clip-rule="evenodd" d="M9.65 3.374c1.39 0 2.582.392 2.582 1.657 0 1.296-1.191 1.657-2.581 1.657H6.513V1.567h5.163v1.205H8.3v.602h1.35zm0 2.14c.398 0 .755-.06.755-.483 0-.391-.357-.482-.754-.482H8.34v.964h1.31z" fill="#fff"/><path d="M14.853 6.809c-.357 0-.714-.06-1.112-.12V5.542c.239.06.556.12.795.12.437 0 .715-.09.873-.36l.12-.181-2.622-3.555h1.946l1.51 2.35 1.23-2.35h1.986l-2.462 3.946c-.596.995-1.35 1.296-2.264 1.296zM19.897 6.688l2.343-2.65-2.184-2.471h2.105l1.231 1.506 1.231-1.506h2.065l-2.144 2.47 2.303 2.651h-2.105l-1.35-1.717-1.39 1.717h-2.105zM27.88 6.688V1.567h4.884v1.205h-3.097v3.916H27.88z" fill="#fff"/><path fill-rule="evenodd" clip-rule="evenodd" d="M32.328 6.688l2.66-5.121h1.947l2.66 5.121H37.77l-.398-.783h-2.78l-.397.783h-1.866zm2.74-1.898h1.747l-.675-1.476c-.08-.12-.119-.241-.198-.512-.04.271-.12.392-.16.512l-.714 1.476z" fill="#fff"/><path d="M46.744 1.567v5.121h-1.787V2.772h-1.43c-.238 2.109-.556 3.977-2.502 4.007-.264 0-.542-.04-.834-.12V5.482c.106.04.252.05.437.03 1.112-.09 1.072-2.38 1.231-3.946h4.885zM53.615 1.567v1.205h-1.907v3.916h-1.787V2.772h-1.906V1.567h5.6zM59.77 1.567v1.175h-3.097v.783h2.78V4.7h-2.78v.813h3.137v1.175h-4.924V1.567h4.884z" fill="#fff"/><path fill-rule="evenodd" clip-rule="evenodd" d="M64.02 1.567c1.668 0 2.939.391 2.939 1.747s-1.271 1.778-2.94 1.778h-.913v1.596H61.32V1.567h2.7zm.08 1.175h-.954v1.175h.953c.556 0 1.033-.12 1.033-.603 0-.452-.477-.572-1.033-.572z" fill="#fff"/><path d="M71.645 1.446c.675 0 1.35.12 1.946.331v1.296c-.397-.271-1.033-.422-1.628-.422-1.073 0-2.145.452-2.145 1.567 0 .994 1.072 1.386 2.105 1.386.715 0 1.35-.151 1.747-.422v1.295c-.595.211-1.27.332-1.985.332-1.867 0-3.734-.753-3.734-2.591 0-1.959 1.867-2.772 3.694-2.772zM75.14 6.688V1.567h1.787v1.928h.834l1.549-1.928h1.986l-2.145 2.5 2.224 2.621h-1.986L77.761 4.73h-.834v1.958H75.14zM86.736 6.688V4.61c0-.27.04-.602.04-.843l-2.621 2.922h-1.708V1.567h1.787v2.109c0 .27 0 .602-.04.843l2.662-2.952h1.668v5.121h-1.788z" fill="#fff"/><path fill-rule="evenodd" clip-rule="evenodd" d="M94.6 6.688V4.61c0-.27.04-.602.04-.843l-2.661 2.922H90.31V1.567h1.787v2.109c0 .27 0 .602-.04.843l2.661-2.952h1.668v5.121H94.6zm-1.231-5.423c-.715 0-1.192-.12-1.629-.331V0a3.94 3.94 0 001.629.331c.556 0 1.072-.09 1.588-.331v.934c-.437.21-.873.331-1.588.331z" fill="#fff"/><path d="M106.077 7.773V6.688h-5.401V1.567h1.787v3.916h2.502V1.567h1.788v3.916h.873v2.29h-1.549zM113.901 1.567v1.175h-3.098v.783h2.82V4.7h-2.82v.813h3.178v1.175h-4.965V1.567h4.885zM121.566 1.567v5.121h-1.787V4.73h-2.502v1.958h-1.787V1.567h1.787v1.958h2.502V1.567h1.787zM128.437 1.567v1.205h-1.907v3.916h-1.787V2.772h-1.906V1.567h5.6z" fill="#fff"/><path fill-rule="evenodd" clip-rule="evenodd" d="M132.368 1.567c1.668 0 2.979.391 2.979 1.747s-1.311 1.778-2.979 1.778h-.873v1.596h-1.788V1.567h2.661zm.08 1.175h-.993v1.175h.993c.556 0 1.032-.12 1.032-.603 0-.452-.476-.572-1.032-.572z" fill="#fff"/><path d="M6.513 75.318v-9.731H9.69v4.61l3.456-4.61h3.614l-3.773 4.519 4.17 5.212h-3.694L9.69 70.226v5.092H6.513z" fill="#DD3E38"/><path fill-rule="evenodd" clip-rule="evenodd" d="M27.483 70.86c0 1.264-.04 2.47-1.311 3.464-.913.723-2.105 1.084-3.535 1.084-1.509 0-2.7-.361-3.614-1.084-1.27-1.025-1.31-2.29-1.31-3.495v-.723c0-1.898.278-2.712 1.31-3.495.914-.753 2.105-1.084 3.575-1.084 1.47 0 2.66.331 3.574 1.084.913.693 1.31 1.597 1.31 2.983v1.265zm-3.138-.814c0-.904-.119-1.627-.476-1.959-.278-.27-.755-.421-1.271-.421-.517 0-.953.15-1.271.421-.318.332-.437 1.055-.437 1.959v.693c0 1.235.12 1.777.437 2.108.318.272.754.452 1.27.452.517 0 .994-.18 1.272-.452.357-.33.476-.873.476-2.108v-.693z" fill="#DD3E38"/><path d="M36.379 75.318v-3.856h-3.376v3.856h-3.137v-9.731h3.137v3.766h3.376v-3.766h3.137v9.73H36.38zM46.784 75.408c-1.51 0-2.661-.391-3.575-1.084-1.35-1.025-1.31-2.41-1.31-3.856 0-1.477-.04-2.833 1.31-3.857.914-.723 2.066-1.084 3.575-1.084 2.422 0 4.368 1.024 4.845 3.163h-3.217c-.198-.542-.596-1.055-1.628-1.055-.556 0-.993.181-1.231.422-.278.271-.477.633-.477 2.41 0 1.778.199 2.11.477 2.41.238.212.675.392 1.23.392 1.033 0 1.43-.482 1.63-1.024h3.216c-.477 2.139-2.423 3.163-4.845 3.163z" fill="#DD3E38"/><path fill-rule="evenodd" clip-rule="evenodd" d="M60.326 75.318l-.595-1.446h-3.972l-.635 1.446h-3.297l4.687-9.731h2.422l4.687 9.73h-3.297zm-2.541-6.026l-1.152 2.591h2.264l-1.112-2.59z" fill="#DD3E38"/><path d="M71.526 75.318v-7.592h-2.224v2.53c0 4.098-1.35 5.062-4.09 5.062H63.98v-2.11h.397c1.112 0 1.867-.451 1.867-2.952v-4.67h8.459v9.732h-3.177zM83.043 67.726v7.592h-3.177v-7.592h-3.138v-2.14h9.453v2.14h-3.138zM95.076 75.318v-5.303l-4.09 5.303h-2.74v-9.731h3.137v5.302l4.09-5.302h2.78v9.73h-3.177zM107.547 75.318v-3.856h-3.336v3.856h-3.177v-9.731h3.177v3.766h3.336v-3.766h3.137v9.73h-3.137zM116.641 67.726v7.592h-3.137v-9.731h8.26v2.139h-5.123z" fill="#DD3E38"/><path fill-rule="evenodd" clip-rule="evenodd" d="M48.77 51.367c-11.796 0-18.31-5.724-19.54-12.202h-5.997v11.63H15.09V22.022h8.142v11.599h5.997c1.31-6.508 7.784-12.172 19.54-12.172 13.423 0 20.134 7.14 20.134 14.944 0 7.833-6.711 14.973-20.135 14.973zm.079-5.724c7.823 0 11.795-4.188 11.795-9.25 0-5.03-3.972-9.218-11.795-9.218-7.903 0-11.875 4.187-11.875 9.219 0 5.06 3.972 9.249 11.875 9.249z" fill="#DD3E38"/><path d="M101.431 22.023v5.543h-16.72l-1.986-1.506c-.198-.15-.476-.21-.715-.21-.238 0-.476.06-.675.21-.397.271-.397.753 0 1.024l1.708 1.326v22.384h-8.102V22.023h26.49z" fill="#DD3E38"/><path d="M178 41.455c0 .723-.397 1.446-1.072 1.958l-35.783 26.844c-.675.512-1.628.813-2.581.813h-10.842v-5.543h9.332l31.137-23.349h2.343c.556 0 .993-.331.993-.723 0-.392-.437-.723-.993-.723h-2.383l-31.375-23.348H8.658L6.91 16.058a1.129 1.129 0 00-.675-.211c-.238 0-.476.09-.675.21-.397.302-.397.754 0 1.055l1.787 1.326V54.38L5.56 55.735a.594.594 0 00-.278.513c0 .18.08.361.278.512.357.301.993.301 1.35 0l1.787-1.326h109.295l16.878-13.256h2.065c.517 0 .953-.331.953-.723 0-.392-.436-.723-.953-.723h-2.065l-16.918-13.165h-7.427v-5.544h8.976c.953 0 1.906.301 2.621.844l21.406 16.66c1.39 1.054 1.39 2.772 0 3.856l-21.366 16.751c-.715.542-1.668.843-2.622.843H3.654C1.668 60.977 0 59.742 0 58.206V14.612c0-1.507 1.668-2.772 3.654-2.772h134.632c.953 0 1.866.301 2.541.813l36.061 26.814c.715.512 1.112 1.235 1.112 1.988z" fill="#DD3E38"/></svg>